{"title":"Stereo 2014 BluRay 1080P DTS x264-CHD [MovietaM]","uid":11396147,"size":9585755887,"categoryP":"video","categoryS":"hd___movies","magnet":"?xt=urn:btih:f90d4d274804581c8e70f699433211ee8eb2402b&amp;dn=Stereo+2014+BluRay+1080P+DTS+x264-CHD+%5BMovietaM%5D&amp;tr=udp%3A%2F%2Ftracker.openbittorrent.com%3A80&amp;tr=udp%3A%2F%2Fopen.demonii.com%3A1337&amp;tr=udp%3A%2F%2Ftracker.coppersurfer.tk%3A6969&amp;tr=udp%3A%2F%2Fexodus.desync.com%3A6969","seeders":2,"leechers":2,"uploader":"divachen","files":2,"time":1415373211,"description":"[img]http://images.static-bluray.com/movies/covers/112876_front.jpg[/img]\n\n[code]General\nUnique ID : 217073224491535264159919661716831711678 (0xA34EC845F239077C95F129E67463B1BE)\nComplete name : Stereo.2014.BluRay.1080P.DTS.x264-CHD.mkv\nFormat : Matroska\nFormat version : Version 4 / Version 2\nFile size : 8.93 GiB\nDuration : 1h 37mn\nOverall bit rate : 13.1 Mbps\nEncoded date : UTC 2014-11-04 15:44:35\nWriting application : mkvmerge v6.9.1 ('Blue Panther') 64bit built on Apr 18 2014 18:23:38\nWriting library : libebml v1.3.0 + libmatroska v1.4.1\n\nVideo\nID : 1\nFormat : AVC\nFormat/Info : Advanced Video Codec\nFormat profile : &lt;a class=&quot;__cf_email__&quot; href=&quot;/cdn-cgi/l/email-protection&quot; data-cfemail=&quot;175f7e707f575b233926&quot;&gt;[email&amp;#160;protected]&lt;/a&gt;&lt;script cf-hash='f9e31' type=&quot;text/javascript&quot;&gt;\n/* &lt;![CDATA[ */!function(){try{var t=&quot;currentScript&quot;in document?document.currentScript:function(){for(var t=document.getElementsByTagName(&quot;script&quot;),e=t.length;e--;)if(t[e].getAttribute(&quot;cf-hash&quot;))return t[e]}();if(t&amp;&amp;t.previousSibling){var e,r,n,i,c=t.previousSibling,a=c.getAttribute(&quot;data-cfemail&quot;);if(a){for(e=&quot;&quot;,r=parseInt(a.substr(0,2),16),n=2;a.length-n;n+=2)i=parseInt(a.substr(n,2),16)^r,e+=String.fromCharCode(i);e=document.createTextNode(e),c.parentNode.replaceChild(e,c)}}}catch(u){}}();/* ]]&gt; */&lt;/script&gt;\nFormat settings, CABAC : Yes\nFormat settings, ReFrames : 4 frames\nCodec ID : V_MPEG4/ISO/AVC\nDuration : 1h 37mn\nBit rate : 11.6 Mbps\nWidth : 1 920 pixels\nHeight : 800 pixels\nDisplay aspect ratio : 2.40:1\nFrame rate mode : Constant\nFrame rate : 24.000 fps\nColor space : YUV\nChroma subsampling : 4:2:0\nBit depth : 8 bits\nScan type : Progressive\nBits/(Pixel*Frame) : 0.314\nStream size : 7.72 GiB (86%)\nWriting library : x264 core 142 r2431 ac76440\nEncoding settings : cabac=1 / ref=4 / deblock=1:-3:-3 / analyse=0x3:0x113 / me=umh / subme=11 / psy=1 / psy_rd=1.05:0.10 / mixed_ref=1 / me_range=48 / chroma_me=1 / trellis=2 / 8x8dct=1 / cqm=0 / deadzone=21,11 / fast_pskip=0 / chroma_qp_offset=-2 / threads=6 / lookahead_threads=1 / sliced_threads=0 / nr=0 / decimate=1 / interlaced=0 / bluray_compat=0 / constrained_intra=0 / bframes=6 / b_pyramid=2 / b_adapt=2 / b_bias=0 / direct=3 / weightb=1 / open_gop=0 / weightp=2 / keyint=250 / keyint_min=24 / scenecut=40 / intra_refresh=0 / rc_lookahead=40 / rc=2pass / mbtree=0 / bitrate=11568 / ratetol=2.0 / qcomp=0.70 / qpmin=0 / qpmax=69 / qpstep=4 / cplxblur=20.0 / qblur=0.5 / vbv_maxrate=40000 / vbv_bufsize=30000 / nal_hrd=none / filler=0 / ip_ratio=1.40 / pb_ratio=1.30 / aq=2:1.00\nLanguage : English\nDefault : Yes\nForced : No\n\nAudio\nID : 2\nFormat : DTS\nFormat/Info : Digital Theater Systems\nMode : 16\nFormat settings, Endianness : Big\nCodec ID : A_DTS\nDuration : 1h 37mn\nBit rate mode : Constant\nBit rate : 1 509 Kbps\nChannel(s) : 6 channels\nChannel positions : Front: L C R, Side: L R, LFE\nSampling rate : 48.0 KHz\nBit depth : 24 bits\nCompression mode : Lossy\nStream size : 1.03 GiB (12%)\nLanguage : German\nDefault : Yes\nForced : No\n\nText\nID : 3\nFormat : PGS\nMuxing mode : zlib\nCodec ID : S_HDMV/PGS\nCodec ID/Info : The same subtitle format used on BDs/HD-DVDs\nLanguage : German\nDefault : Yes\nForced : No[/code]","torrent":{"xt":"urn:btih:f90d4d274804581c8e70f699433211ee8eb2402b","amp;dn":"Stereo+2014+BluRay+1080P+DTS+x264-CHD+%5BMovietaM%5D","amp;tr":["udp%3A%2F%2Ftracker.openbittorrent.com%3A80","udp%3A%2F%2Fopen.demonii.com%3A1337","udp%3A%2F%2Ftracker.coppersurfer.tk%3A6969","udp%3A%2F%2Fexodus.desync.com%3A6969"],"infoHash":"f90d4d274804581c8e70f699433211ee8eb2402b","infoHashBuffer":{"type":"Buffer","data":[249,13,77,39,72,4,88,28,142,112,246,153,67,50,17,238,142,178,64,43]},"announce":[],"urlList":[]}}